<svg width="32" height="32" viewBox="0 0 32 32" fill="none" xmlns="http://www.w3.org/2000/svg">
<path d="M31.9999 16.48C32.2399 7.31997 24.8799 -0.120033 15.7599 -3.33394e-05C6.99994 0.119967 -0.0800611 7.35997 -6.10723e-05 16.12C0.0399389 22.4 3.71994 27.8 8.99994 30.4C9.31994 30.56 9.67994 30.32 9.63994 29.96C9.59994 28.92 9.63994 27.84 9.83994 26.96C10.0399 26.08 10.8399 22.72 11.3599 20.52C11.5999 19.44 11.6399 18.32 11.4399 17.24C11.3599 16.88 11.3199 16.48 11.3199 16C11.3199 13.64 12.6799 11.88 14.3999 11.88C15.8399 11.88 16.5599 12.96 16.5599 14.28C16.5599 15.72 15.6399 17.92 15.1599 19.96C14.7599 21.64 15.9999 23.04 17.6799 23.04C20.7199 23.04 23.0399 19.84 23.0399 15.24C23.0399 11.16 20.1199 8.31997 15.9199 8.31997C11.0799 8.31997 8.23994 11.96 8.23994 15.72C8.23994 17.2 8.79994 18.76 9.51994 19.6C9.63994 19.76 9.67994 19.92 9.63994 20.08C9.51994 20.6 9.23994 21.76 9.15994 22C9.07994 22.32 8.91994 22.36 8.59994 22.24C6.47994 21.2 5.11994 18.08 5.11994 15.6C5.11994 10.24 8.99994 5.31997 16.3599 5.31997C22.2399 5.31997 26.8399 9.51997 26.8399 15.16C26.8399 21.04 23.1599 25.72 17.9999 25.72C16.6399 25.72 15.3599 25.16 14.5999 24.4C14.3599 24.16 13.9599 24.28 13.8799 24.6C13.5999 25.6 13.1999 27.28 13.0399 27.8C12.7999 28.76 12.2799 29.88 11.7199 30.88C11.5599 31.12 11.7199 31.48 11.9999 31.52C13.3199 31.84 14.6799 32.04 16.0799 32C24.5599 31.92 31.7599 24.88 31.9999 16.48Z" fill="white"/>
</svg>
